<svg width="1024" height="1024" viewBox="0 0 1024 1024" fill="none" xmlns="http://www.w3.org/2000/svg">
<rect width="1024" height="1024" fill="#25D366"/>
<path fill-rule="evenodd" clip-rule="evenodd" d="M512 992C759.424 992 960 791.424 960 544C960 296.576 759.424 96 512 96C264.576 96 64 296.576 64 544C64 624.349 85.152 699.757 122.191 764.96L64 992L298.076 937.722C361.645 972.333 434.525 992 512 992ZM512 923.078C721.36 923.078 891.078 753.36 891.078 544C891.078 334.643 721.36 164.923 512 164.923C302.642 164.923 132.923 334.643 132.923 544C132.923 624.835 158.224 699.76 201.339 761.286L167.385 888.614L296.958 856.221C358.061 898.387 432.147 923.078 512 923.078Z" fill="#BFC8D0"/>
<path d="M896 512C896 724.077 724.077 896 512 896C431.11 896 356.061 870.989 294.165 828.278L162.909 861.091L197.304 732.109C153.629 669.782 128 593.885 128 512C128 299.923 299.923 128 512 128C724.077 128 896 299.923 896 512Z" fill="url(#paint0_linear_27_42)"/>
<rect x="463.4" y="189" width="145.92" height="362.24" fill="#BFC8D0"/>
<path d="M536.36 644.68L743.652 550.6H329.068L536.36 644.68Z" fill="#BFC8D0"/>
<rect x="445.44" y="176.64" width="145.92" height="362.24" fill="white"/>
<path d="M518.4 632.32L725.692 538.24H311.108L518.4 632.32Z" fill="white"/>
<path fill-rule="evenodd" clip-rule="evenodd" d="M512 960C759.424 960 960 759.424 960 512C960 264.576 759.424 64 512 64C264.576 64 64 264.576 64 512C64 592.349 85.152 667.757 122.191 732.96L64 960L298.076 905.722C361.645 940.333 434.525 960 512 960ZM512 891.078C721.36 891.078 891.078 721.36 891.078 512C891.078 302.642 721.36 132.923 512 132.923C302.642 132.923 132.923 302.642 132.923 512C132.923 592.835 158.224 667.76 201.339 729.286L167.385 856.614L296.958 824.221C358.061 866.387 432.147 891.078 512 891.078Z" fill="white"/>
<rect x="254" y="670" width="527.36" height="42.6667" fill="#BFC8D0"/>
<rect x="248" y="661" width="527.36" height="42.6667" fill="white"/>
<path d="M302.933 512L404.916 465.92H200.95L302.933 512Z" fill="#BFC8D0"/>
<rect x="285.013" y="301.227" width="35.84" height="168.107" fill="#BFC8D0"/>
<path d="M290.133 512L392.117 465.92H188.15L290.133 512Z" fill="white"/>
<rect x="272.213" y="301.227" width="35.84" height="168.107" fill="white"/>
<path d="M757.76 512L859.743 465.92H655.777L757.76 512Z" fill="#BFC8D0"/>
<rect x="739.84" y="301.227" width="35.84" height="168.107" fill="#BFC8D0"/>
<path d="M744.96 512L846.943 465.92H642.977L744.96 512Z" fill="white"/>
<rect x="727.04" y="301.227" width="35.84" height="168.107" fill="white"/>
<defs>
<linearGradient id="paint0_linear_27_42" x1="848" y1="224" x2="128" y2="896" gradientUnits="userSpaceOnUse">
<stop offset="1" stop-color="#25D366"/>
</linearGradient>
</defs>
</svg>
